<svg id="Layer_1" data-name="Layer 1" xmlns="http://www.w3.org/2000/svg" viewBox="0 0 266 266"><defs><style>.cls-1{fill:#bb3c6e;}</style></defs><title>hand</title><path class="cls-1" d="M89,136.44v-1.85Q89,97,89,59.49c0-9.77,4.1-17.42,12.58-22.37a22.66,22.66,0,0,1,20.46-1.59c3.43-10.09,10.3-16.56,20.92-18s18.94,3.12,24.94,12.14c8.25-5.27,16.7-5.59,25-.45s12,12.7,12,22.41c.46-.08.8-.1,1.12-.19,9.11-2.55,17.23-.58,24.14,5.74,5.37,4.92,7.8,11.28,7.8,18.55,0,35.61.07,71.22,0,106.83a64.78,64.78,0,0,1-19,46.57A63.27,63.27,0,0,1,183,247.87a93.51,93.51,0,0,1-13.49,1c-10.07.15-20.15.05-30.23,0-4.33,0-7.55-2.36-8.63-6.23-1.35-4.87,2.37-10.18,7.44-10.25,9.75-.12,19.52,0,29.28-.1a117.13,117.13,0,0,0,12.28-.75,43.36,43.36,0,0,0,15.93-5.42A49.71,49.71,0,0,0,221.41,182V76.11c0-4.6-2.16-7.71-6.09-8.87a8.19,8.19,0,0,0-10.34,7c-.06.81-.09,1.62-.09,2.44q0,19.45,0,38.9c0,3.73-1.31,6.72-4.79,8.43a8.17,8.17,0,0,1-11.66-6.58c-.07-.8-.1-1.62-.1-2.43V51.42c0-3.43-1-6.35-4.12-8.14-5.72-3.29-12.29.67-12.5,7.49,0,1,0,2,0,3q0,31,0,62.09c0,3.39-1.14,6.13-4.12,7.84-5.69,3.27-12.3-.78-12.44-7.59-.06-3.3,0-6.6,0-9.9q0-31.65,0-63.31c0-3.37-1.06-6.11-4-7.88-4.92-2.92-12.49-.2-12.51,7.73,0,5.25,0,10.49,0,15.73,0,19.11-.07,38.23,0,57.34a8.67,8.67,0,0,1-6.5,8.82,8.29,8.29,0,0,1-9.94-6.86,17.91,17.91,0,0,1-.14-2.43q0-28,0-56c0-3.69-1.38-6.5-4.73-8.15a8.2,8.2,0,0,0-11.67,6.27,18.37,18.37,0,0,0-.15,2.57q0,44.33,0,88.66c0,2.79-.48,5.37-2.36,7.57A7.64,7.64,0,0,1,93.4,158a102.79,102.79,0,0,0-18.53-8.89c-5.74-2-11.58-3.56-17.71-3.59a19.41,19.41,0,0,0-15.68,7.22c-4.5,5.36-.79,12.12,3.58,14.37,5.65,2.92,11.08,6.28,16.49,9.64a186.61,186.61,0,0,1,29.23,22.12c7.65,7.15,14.38,15,18.94,24.53a40.66,40.66,0,0,1,4.12,17,8.27,8.27,0,0,1-16.52.61c-.14-6.71-3.1-12.35-6.9-17.63-5.73-8-13-14.45-20.6-20.47A254,254,0,0,0,36.13,181a26,26,0,0,1-12.77-27.73c1.39-6.68,5.32-11.79,10.56-15.92,6.39-5,13.66-8.15,21.8-8.25a96.13,96.13,0,0,1,15.72,1.62,62.09,62.09,0,0,1,15.33,4.82C87.43,135.8,88.09,136.06,89,136.44Z"/></svg>