<svg id="Layer_1" data-name="Layer 1" xmlns="http://www.w3.org/2000/svg" viewBox="0 0 266 266"><defs><style>.cls-1{fill:#fff;}.cls-2{fill:#bb3c6e;}.cls-3{fill:#4a9d98;}</style></defs><title>hh-logo</title><rect class="cls-1" x="18" y="19" width="232" height="232" rx="43.71"/><path class="cls-2" d="M149.05,119.48a5.49,5.49,0,0,0-1.57,0c-1.59.48-2.77-.22-4.06-1-5-3.1-10-6.11-15-9.12a9.48,9.48,0,0,1-4.57-10.23,9.88,9.88,0,0,1,8.68-7.57c2.77-.26,5.36.52,8,1.15,14.9,3.61,29.5,8.1,43.44,14.55a68.38,68.38,0,0,1,15.63,9.44,33.26,33.26,0,0,1,5.93,6.66A178.82,178.82,0,0,1,220,149.44a26,26,0,0,0,6,8.39c2.69,2.46,5.19,5.14,7.76,7.73a2.45,2.45,0,0,1,0,3.93q-13.27,13.32-26.58,26.59a2.11,2.11,0,0,1-3.11.19,12.54,12.54,0,0,1-1.3-1.23c-3.35-3.34-6.7-6.71-10.07-10a5.85,5.85,0,0,0-1.63-1.1c-4.8-2.23-9.62-4.43-14.43-6.65a26.1,26.1,0,0,1-8.61-6.46c-5.14-5.81-10.13-11.75-15.27-17.56-3.62-4.1-7.14-8.34-11.14-12-4.6-4.25-2.63-10.16.93-13A10.22,10.22,0,0,1,153,126.74c4.58,1.65,8,4.83,11.09,8.45,3.2,3.78,6.35,7.6,9.5,11.41a3.67,3.67,0,0,0,2.84,1.58,3.19,3.19,0,0,0,3.08-1.82,2.81,2.81,0,0,0-.27-3.26c-4.09-4.9-8.11-9.87-12.36-14.63a27,27,0,0,0-12.62-8.25c-1.67-.49-3.43-.66-5.14-1Z"/><path class="cls-3" d="M120.05,152.61a9,9,0,0,0,2.13-.13c1.39-.44,2.38.21,3.48.89,5,3.12,10.12,6.17,15.19,9.24A9.46,9.46,0,0,1,145.42,173a9.9,9.9,0,0,1-9,7.48c-2.79.19-5.41-.64-8.06-1.3A254.83,254.83,0,0,1,90.17,166.8a99.37,99.37,0,0,1-17.32-9.26c-4.85-3.3-8.32-7.8-11.38-12.68a265.4,265.4,0,0,1-14-26.28A6.08,6.08,0,0,0,46.33,117q-5.55-5.61-11.16-11.17a2.17,2.17,0,0,1-.24-3,9,9,0,0,1,.8-.84L61.45,76.49c1.51-1.5,2.45-1.52,4,0C69.21,80,72.92,83.52,76.66,87a6.51,6.51,0,0,0,1.64,1.09c4.71,2.18,9.43,4.33,14.15,6.5a26.76,26.76,0,0,1,9,6.67c5.22,5.93,10.29,12,15.52,17.89,3.77,4.26,7.66,8.41,11.58,12.52a7.27,7.27,0,0,1,1.24,8.28,10.3,10.3,0,0,1-13.34,5.35,22.35,22.35,0,0,1-8.93-6.16c-3.82-4.3-7.45-8.77-11.19-13.15a9,9,0,0,0-2-1.82,3.27,3.27,0,0,0-3.87.65,3.13,3.13,0,0,0-.37,4c4.76,5.85,9.16,12,14.83,17.07a25,25,0,0,0,12.87,6.51C118.61,152.53,119.46,152.56,120.05,152.61Z"/></svg>